<?xml version="1.0" encoding="utf-8"?>
<!-- Generator: Adobe Illustrator 26.5.0, SVG Export Plug-In . SVG Version: 6.00 Build 0)  -->
<svg version="1.1" id="Layer_1" xmlns="http://www.w3.org/2000/svg" xmlns:xlink="http://www.w3.org/1999/xlink" x="0px" y="0px"
	 viewBox="0 0 46.1 54" style="enable-background:new 0 0 46.1 54;" xml:space="preserve">
<style type="text/css">
	.st0{fill:#FFFFFF;}
	.st1{fill:#00A19C;}
</style>
<g>
	<g>
		<path class="st0" d="M18.8,54c-3.4,0-6.8-0.9-9.7-2.7C3.4,47.9,0,41.8,0,35.2c0-3.3,0.9-6.6,2.6-9.5l0,0
			c0.2-0.4,1.6-2.8,11.6-20.1c2.4-4.2,4.6-5.4,10.1-5.5h0.1h21.8l-13,22.4l1.8,3c1.8,2.9,2.7,6.3,2.7,9.7C37.6,45.6,29.2,54,18.8,54
			z"/>
		<path class="st0" d="M30.7,22.4L42.4,2.1H24.4c-5,0.1-6.4,1.1-8.3,4.4c0,0-11.6,20.1-11.6,20.2c-1.4,2.5-2.3,5.4-2.3,8.4
			c0,6.1,3.2,11.4,8.1,14.3c2.5,1.5,5.4,2.4,8.6,2.4c9.2,0,16.7-7.5,16.7-16.7c0-3.2-0.9-6.1-2.4-8.6L30.7,22.4z"/>
		<g>
			<path class="st1" d="M28.1,35.2c0,5.1-4.1,9.3-9.3,9.3c-5.1,0-9.3-4.1-9.3-9.3c0-5.1,4.1-9.3,9.3-9.3
				C23.9,25.9,28.1,30.1,28.1,35.2"/>
			<path class="st1" d="M30.7,22.4L42.4,2.1H24.4c-5,0.1-6.4,1.1-8.3,4.4c0,0-11.6,20.1-11.6,20.2c-1.4,2.5-2.3,5.4-2.3,8.4
				c0,6.1,3.2,11.4,8.1,14.3c2.5,1.5,5.4,2.4,8.6,2.4c9.2,0,16.7-7.5,16.7-16.7c0-3.2-0.9-6.1-2.4-8.6L30.7,22.4z M24.4,6.4H35
				l-6.8,11.8l-2.3-4l-4.3-7.5C22.3,6.5,23.1,6.4,24.4,6.4 M18.8,47.6c-3.1,0-5.8-1.1-8-2.9c-2.7-2.3-4.4-5.7-4.4-9.5
				c0-2.3,0.6-4.5,1.7-6.3c0,0,10.7-18.5,10.7-18.6l4.2,7.2l0,0l0,0l6.5,11.3c0,0,0,0,0,0c1.1,1.8,1.7,4,1.7,6.3
				C31.2,42,25.7,47.6,18.8,47.6"/>
		</g>
	</g>
</g>
</svg>
