<svg id="pet-share-icon-link-hover" xmlns="http://www.w3.org/2000/svg" width="14.892" height="14.899" viewBox="0 0 14.892 14.899">
  <path id="Path_2293" data-name="Path 2293" d="M16.289,14.7H16a4.066,4.066,0,0,1-2.976-1.623.626.626,0,0,1,1-.752,2.825,2.825,0,0,0,4.26.307l2.074-2.074a2.825,2.825,0,0,0-4-3.984L15.174,7.737a.627.627,0,1,1-.883-.89L15.469,5.67a4.078,4.078,0,0,1,5.77,5.757l-2.08,2.08A4.06,4.06,0,0,1,16.289,14.7Z" transform="translate(-7.432 -4.578)" fill="#fff"/>
  <path id="Path_2294" data-name="Path 2294" d="M8.23,22.284a4.06,4.06,0,0,1-2.913-6.9l2.061-2.092a4.078,4.078,0,0,1,6.152.445.629.629,0,0,1-1.009.752,2.822,2.822,0,0,0-4.26-.307L6.194,16.245a2.826,2.826,0,1,0,4,3.991l1.172-1.172a.626.626,0,0,1,.883.883l-1.178,1.184A4.1,4.1,0,0,1,8.23,22.284Z" transform="translate(-4.172 -7.386)" fill="#fff"/>
</svg>
