<svg xmlns="http://www.w3.org/2000/svg" width="15.064" height="15.024" viewBox="0 0 15.064 15.024">
  <path id="pet-share-icon-linkedin-hover" d="M19.034,10.366V5.122a1.015,1.015,0,0,0-.94-1.052h-.081a.3.3,0,0,1-.15,0H5.145a.3.3,0,0,1-.15,0H4.938a1.485,1.485,0,0,0-.464.119A.977.977,0,0,0,4,5.11v12.9a1.052,1.052,0,0,0,.138.57,1.2,1.2,0,0,0,1.034.514H17.806a1.2,1.2,0,0,0,1.253-1.253C19.034,15.366,19.034,12.866,19.034,10.366ZM8.452,16.631c0,.107,0,.15-.144.15H6.366c-.113,0-.138-.038-.138-.144V9.809c0-.132.044-.157.163-.157H8.271c.119,0,.163,0,.163.15q.006,3.433.013,6.847ZM7.337,8.693A1.284,1.284,0,1,1,8.622,7.4,1.284,1.284,0,0,1,7.337,8.693Zm9.4,7.95c0,.125,0,.157-.15.157H14.673c-.119,0-.15-.031-.15-.15V13.1a3.383,3.383,0,0,0-.081-.789.99.99,0,0,0-1.021-.877,1.153,1.153,0,0,0-1.278.94,2.963,2.963,0,0,0-.088.746v3.515c0,.132-.031.163-.157.163H9.968c-.107,0-.132,0-.132-.132V9.809c0-.107,0-.138.144-.138h1.842c.107,0,.144,0,.138.138v.7a.188.188,0,0,0,.031.144,2.425,2.425,0,0,1,.4-.507,2.312,2.312,0,0,1,1.666-.626,3.515,3.515,0,0,1,1.253.2,2.118,2.118,0,0,1,1.3,1.666,7.079,7.079,0,0,1,.144,1.585c-.006,1.2-.013,2.437-.013,3.671Z" transform="translate(-3.995 -4.07)" fill="#fff"/>
</svg>
