<svg id="Logo_FIXED" data-name="Logo — FIXED" xmlns="http://www.w3.org/2000/svg" width="16.909" height="13.739" viewBox="0 0 16.909 13.739">
  <path id="Path_2292" data-name="Path 2292" d="M7.829,18.809A9.81,9.81,0,0,0,17.7,8.929V8.485a7.173,7.173,0,0,0,1.717-1.779,7.036,7.036,0,0,1-2,.545,3.464,3.464,0,0,0,1.529-1.923,6.854,6.854,0,0,1-2.205.839,3.471,3.471,0,0,0-6,2.374,3.684,3.684,0,0,0,.088.8A9.861,9.861,0,0,1,3.675,5.709a3.439,3.439,0,0,0-.47,1.748,3.49,3.49,0,0,0,1.547,2.888A3.508,3.508,0,0,1,3.18,9.913v.044a3.483,3.483,0,0,0,2.769,3.408,3.358,3.358,0,0,1-.915.119,3.133,3.133,0,0,1-.626-.063,3.458,3.458,0,0,0,3.239,2.412,6.967,6.967,0,0,1-4.31,1.491,6.046,6.046,0,0,1-.827-.05,9.855,9.855,0,0,0,5.319,1.535" transform="translate(-2.51 -5.071)" fill="#fff"/>
</svg>
