<svg xmlns="http://www.w3.org/2000/svg" width="15.262" height="15.414" viewBox="0 0 15.262 15.414">
  <path id="pet-share-icon-whatsapp-hover" d="M17.476,6.379a7.518,7.518,0,0,0-11.9,9.084L4.5,19.36,8.5,18.314a7.649,7.649,0,0,0,3.615.921h0a7.562,7.562,0,0,0,7.562-7.518A7.461,7.461,0,0,0,17.47,6.392M12.126,17.963h0a6.265,6.265,0,0,1-3.2-.877L8.7,16.954l-2.381.626.626-2.312-.15-.232A6.2,6.2,0,0,1,5.83,11.7,6.265,6.265,0,0,1,16.574,7.275,6.2,6.2,0,0,1,18.41,11.7a6.265,6.265,0,0,1-6.265,6.265m3.446-4.686c-.188-.094-1.115-.551-1.291-.626s-.3-.094-.426.094a9.214,9.214,0,0,1-.6.739c-.107.113-.219.138-.413.044a5.2,5.2,0,0,1-1.516-.933A5.764,5.764,0,0,1,10.3,11.3c-.113-.188,0-.288.081-.382s.188-.219.282-.332a1.09,1.09,0,0,0,.194-.313.332.332,0,0,0,0-.326l-.62-1.391c-.15-.37-.307-.32-.426-.326H9.445a.677.677,0,0,0-.5.238,2.086,2.086,0,0,0-.664,1.566,3.6,3.6,0,0,0,.777,1.948A8.37,8.37,0,0,0,12.3,14.812a10.883,10.883,0,0,0,1.078.395,2.569,2.569,0,0,0,1.19.075,1.936,1.936,0,0,0,1.253-.9,1.516,1.516,0,0,0,.107-.89c-.044-.081-.169-.125-.363-.219" transform="translate(-4.42 -3.946)" fill="#fff" fill-rule="evenodd"/>
</svg>
