<?xml version="1.0" encoding="utf-8"?>
<!-- Generator: Adobe Illustrator 27.4.1, SVG Export Plug-In . SVG Version: 6.00 Build 0)  -->
<svg version="1.1" id="Layer_1" xmlns="http://www.w3.org/2000/svg" xmlns:xlink="http://www.w3.org/1999/xlink" x="0px" y="0px"
	 viewBox="0 0 21 20" style="enable-background:new 0 0 21 20;" xml:space="preserve">
<style type="text/css">
	.st0{fill:none;}
	.st1{fill:none;stroke:#FFFFFF;stroke-width:1.5;}
	.st2{enable-background:new    ;}
	.st3{fill:#FFFFFF;}
</style>
<g id="Group_5500" transform="translate(-1141 -16)">
	<g id="Rectangle_3249" transform="translate(1141 16)">
		<path class="st0" d="M8,0h5c4.4,0,8,3.6,8,8v4c0,4.4-3.6,8-8,8H8c-4.4,0-8-3.6-8-8V8C0,3.6,3.6,0,8,0z"/>
		<path class="st1" d="M8,0.8h5c4,0,7.2,3.2,7.2,7.2v4c0,4-3.2,7.2-7.2,7.2H8c-4,0-7.2-3.2-7.2-7.2V8C0.8,4,4,0.8,8,0.8z"/>
	</g>
	<g class="st2">
		<path class="st3" d="M1146.7,23.3h3.6v1.2h-2.2v1h1.7v1.2h-1.7v1.1h2.3V29h-3.7V23.3z"/>
		<path class="st3" d="M1151.4,23.3h1.4l1.6,2.7c0.2,0.4,0.5,1,0.5,1h0c0,0-0.1-0.6-0.1-1v-2.7h1.4V29h-1.4l-1.6-2.7
			c-0.2-0.4-0.5-1-0.5-1h0c0,0,0.1,0.6,0.1,1V29h-1.4V23.3z"/>
	</g>
</g>
</svg>
